<?xml version='1.0' encoding='iso-8859-1'?>
<svg version="1.1" xmlns="http://www.w3.org/2000/svg" viewBox="0 0 296 296" xmlns:xlink="http://www.w3.org/1999/xlink" enable-background="new 0 0 296 296">
  <g>
    <g>
      <path d="m296,107h-16v-17h-264v17h-16v49h16v50h113.158l19.016-32.936 19.015,32.936h112.811v-50h16v-49zm-164,41.25c0,22.506-18.244,40.75-40.75,40.75h-18.5c-22.506,0-40.75-18.244-40.75-40.75v-0.5c0-22.506 18.244-40.75 40.75-40.75h18.5c22.506,0 40.75,18.244 40.75,40.75v0.5zm132,0c0,22.506-18.244,40.75-40.75,40.75h-18.5c-22.506,0-40.75-18.244-40.75-40.75v-0.5c0-22.506 18.244-40.75 40.75-40.75h18.5c22.506,0 40.75,18.244 40.75,40.75v0.5z"/>
      <path d="M91.458,123h-0.125h-18.25C59.436,123,48,134.102,48,147.75v0.5C48,161.898,59.436,173,73.083,173h18.5    C105.23,173,116,161.898,116,148.25v-0.5C116,134.102,105.105,123,91.458,123z"/>
      <path d="m223.458,123h-0.125-18.25c-13.647,0-25.083,11.102-25.083,24.75v0.5c0,13.648 11.436,24.75 25.083,24.75h18.5c13.647,0 24.417-11.102 24.417-24.75v-0.5c0-13.648-10.895-24.75-24.542-24.75z"/>
    </g>
  </g>
</svg>
