<?xml version="1.0" encoding="utf-8"?>
<!-- Svg Vector Icons : http://www.onlinewebfonts.com/icon -->
<!DOCTYPE svg PUBLIC "-//W3C//DTD SVG 1.1//EN" "http://www.w3.org/Graphics/SVG/1.1/DTD/svg11.dtd">
<svg version="1.1" xmlns="http://www.w3.org/2000/svg" xmlns:xlink="http://www.w3.org/1999/xlink" x="0px" y="0px" viewBox="0 0 1000 1000" enable-background="new 0 0 1000 1000" xml:space="preserve">
<metadata> Svg Vector Icons : http://www.onlinewebfonts.com/icon </metadata>
<g><path d="M360,54.4c60.2,0,118.5,11.8,173.4,35c53.1,22.4,100.7,54.6,141.6,95.5c40.9,40.9,73.1,88.6,95.5,141.6c23.2,54.9,35,113.2,35,173.4c0,60.2-11.8,118.5-35,173.4c-22.4,53-54.6,100.7-95.5,141.6c-40.9,40.9-88.6,73.1-141.6,95.5c-54.9,23.2-113.2,35-173.4,35c-33.4,0-62.2-2.9-86.1-7c24.6-13.4,51.3-30.1,78-50.5c125.8-96.3,192.4-230.5,192.4-388c0-157.5-66.5-291.6-192.4-388c-26.7-20.5-53.4-37.1-78-50.5C297.8,57.4,326.6,54.4,360,54.4 M360,10c-140.1,0-210,47.2-210,47.2S499.9,150,499.9,500c0,350-349.9,442.8-349.9,442.8S219.9,990,360,990c270.6,0,490-219.4,490-490C850,229.4,630.6,10,360,10L360,10z"/></g>
</svg>